<?xml version="1.0" encoding="UTF-8" standalone="no"?>
<!DOCTYPE svg PUBLIC "-//W3C//DTD SVG 1.1//EN" "http://www.w3.org/Graphics/SVG/1.1/DTD/svg11.dtd">
<!-- Generated by Microsoft Visio, SVG Export Logo1.svg Page-1 -->
<svg xmlns="http://www.w3.org/2000/svg" xmlns:xlink="http://www.w3.org/1999/xlink" xmlns:ev="http://www.w3.org/2001/xml-events"
		xmlns:v="http://schemas.microsoft.com/visio/2003/SVGExtensions/" width="1.82438in" height="1.15001in"
		viewBox="0 0 131.356 82.8007" xml:space="preserve" color-interpolation-filters="sRGB" class="st15">
	<v:documentProperties v:langID="1033" v:viewMarkup="false"/>

	<style type="text/css">
	<![CDATA[
		.st1 {fill:#cccccc;stroke:none;stroke-linecap:butt;stroke-width:1.44495}
		.st2 {fill:#fc7a51;stroke:none;stroke-linecap:butt;stroke-width:1.44495}
		.st3 {fill:#4d4d4d;fill-opacity:0.2;stroke:none;stroke-linecap:butt;stroke-width:1.44495}
		.st4 {fill:#e6e6e6;stroke:none;stroke-linecap:butt;stroke-width:1.44495}
		.st5 {fill:#666666;stroke:none;stroke-linecap:butt;stroke-width:1.44495}
		.st6 {fill:#f9de58;stroke:none;stroke-linecap:butt;stroke-width:1.44495}
		.st7 {fill:#b3b3b3;stroke:none;stroke-linecap:butt;stroke-width:1.44495}
		.st8 {fill:#ffffff;stroke:none;stroke-linecap:butt;stroke-width:1.44495}
		.st9 {fill:none;stroke:none;stroke-linecap:round;stroke-linejoin:round;stroke-width:0.75}
		.st10 {fill:#0070c0;font-family:Algerian;font-size:1.33333em;font-weight:bold}
		.st11 {fill:#0070c0;font-family:Algerian;font-size:1.99999em;font-weight:bold}
		.st12 {font-size:0.666667em}
		.st13 {fill:#ffc000;font-family:Algerian;font-size:1.08334em;font-weight:bold}
		.st14 {font-size:1em}
		.st15 {fill:none;fill-rule:evenodd;font-size:12px;overflow:visible;stroke-linecap:square;stroke-miterlimit:3}
	]]>
	</style>

	<g v:mID="0" v:index="1" v:groupContext="foregroundPage">
		<title>Page-1</title>
		<v:pageProperties v:drawingScale="1" v:pageScale="1" v:drawingUnits="19" v:shadowOffsetX="9" v:shadowOffsetY="-9"/>
		<g id="group54-1" transform="translate(1.44495,-1.44495)" v:mID="54" v:groupContext="group">
			<title>Sheet.54</title>
			<g id="group26-2" v:mID="26" v:groupContext="group">
				<title>Sheet.26</title>
				<g id="shape27-3" v:mID="27" v:groupContext="shape" transform="translate(1.98479,-12.6704)">
					<title>Sheet.27</title>
					<rect x="0" y="46.1748" width="44.0612" height="36.6259" class="st1"/>
				</g>
				<g id="shape28-5" v:mID="28" v:groupContext="shape" transform="translate(0,-40.6673)">
					<title>Sheet.28</title>
					<rect x="0" y="74.1717" width="48.0307" height="8.62898" class="st1"/>
				</g>
				<g id="shape29-7" v:mID="29" v:groupContext="shape" transform="translate(10.7999,-12.6708)">
					<title>Sheet.29</title>
					<path d="M24.49 34.9 C23.3 33.7 21.65 32.96 19.82 32.96 C18 32.96 16.35 33.7 15.15 34.9 C13.96 36.09 13.22 37.74
								 13.22 39.57 C13.22 37.74 12.48 36.09 11.28 34.9 C10.08 33.7 8.43 32.96 6.61 32.96 C4.78 32.96 3.13
								 33.7 1.94 34.9 C0.74 36.09 0 37.74 0 39.57 C0 43.21 2.96 46.18 6.61 46.18 L9.06 46.18 L9.06 82.8
								 L17.37 82.8 L17.37 46.18 L19.82 46.18 C23.47 46.18 26.43 43.21 26.43 39.57 C26.43 37.74 25.69 36.09
								 24.49 34.9 ZM6.61 42.58 C4.94 42.58 3.59 41.23 3.59 39.57 C3.59 38.74 3.93 37.98 4.48 37.44 C5.02
								 36.89 5.78 36.55 6.61 36.55 C7.44 36.55 8.19 36.89 8.74 37.44 C9.28 37.98 9.62 38.74 9.62 39.57
								 L9.62 42.58 L6.61 42.58 ZM19.82 42.58 L16.81 42.58 L16.81 39.57 C16.81 38.74 17.15 37.98 17.69 37.44
								 C18.24 36.89 18.99 36.55 19.82 36.55 C20.65 36.55 21.41 36.89 21.95 37.44 C22.5 37.98 22.84 38.74
								 22.84 39.57 C22.84 41.23 21.49 42.58 19.82 42.58 Z" class="st2"/>
				</g>
				<g id="shape30-9" v:mID="30" v:groupContext="shape" transform="translate(1.98479,-37.5909)">
					<title>Sheet.30</title>
					<rect x="0" y="79.7248" width="17.8777" height="3.07587" class="st3"/>
				</g>
				<g id="shape31-11" v:mID="31" v:groupContext="shape" transform="translate(28.1693,-37.5909)">
					<title>Sheet.31</title>
					<rect x="0" y="79.7248" width="17.876" height="3.07587" class="st3"/>
				</g>
				<g id="group32-13" transform="translate(6.51972,-21.6439)" v:mID="32" v:groupContext="group">
					<title>Sheet.32</title>
					<g id="group33-14" transform="translate(25.0691,0)" v:mID="33" v:groupContext="group">
						<title>Sheet.33</title>
						<g id="shape34-15" v:mID="34" v:groupContext="shape" transform="translate(2.47003,0)">
							<title>Sheet.34</title>
							<rect x="0" y="74.8777" width="4.98213" height="7.92296" class="st4"/>
						</g>
						<g id="shape35-17" v:mID="35" v:groupContext="shape" transform="translate(0,-6.65934)">
							<title>Sheet.35</title>
							<path d="M0 82.8 L9.92 82.8 L4.96 77.84 L0 82.8 Z" class="st4"/>
						</g>
					</g>
					<g id="group36-19" v:mID="36" v:groupContext="group">
						<title>Sheet.36</title>
						<g id="shape37-20" v:mID="37" v:groupContext="shape" transform="translate(2.47003,0)">
							<title>Sheet.37</title>
							<rect x="0" y="74.8777" width="4.98213" height="7.92296" class="st4"/>
						</g>
						<g id="shape38-22" v:mID="38" v:groupContext="shape" transform="translate(0,-6.65934)">
							<title>Sheet.38</title>
							<path d="M0 82.8 L9.92 82.8 L4.96 77.84 L0 82.8 Z" class="st4"/>
						</g>
					</g>
				</g>
				<g id="shape39-24" v:mID="39" v:groupContext="shape" transform="translate(9.9486,-1.92739)">
					<title>Sheet.39</title>
					<path d="M3.98 74.84 C6.18 74.84 7.96 76.62 7.96 78.82 C7.96 81.01 6.18 82.8 3.98 82.8 C1.79 82.8 0 81.01 0 78.82
								 C0 76.62 1.79 74.84 3.98 74.84 Z" class="st4"/>
				</g>
				<g id="shape40-26" v:mID="40" v:groupContext="shape" transform="translate(8.02173,-0.000352132)">
					<title>Sheet.40</title>
					<path d="M11.82 76.89 C11.82 77.02 11.81 77.15 11.81 77.28 C11.61 80.36 9.04 82.8 5.91 82.8 C2.77 82.8 0.21 80.36
								 0.01 77.28 C0 77.15 0 77.02 0 76.89 C0 75.96 0.21 75.08 0.6 74.3 C1.56 72.34 3.58 70.98 5.91 70.98
								 C9.17 70.98 11.82 73.63 11.82 76.89 ZM8.33 76.89 C8.33 75.55 7.25 74.47 5.91 74.47 C4.57 74.47 3.49
								 75.55 3.49 76.89 C3.49 78.23 4.57 79.32 5.91 79.32 C7.25 79.32 8.33 78.23 8.33 76.89 Z"
							class="st5"/>
				</g>
				<g id="shape41-28" v:mID="41" v:groupContext="shape" transform="translate(58.7803,-1.92739)">
					<title>Sheet.41</title>
					<path d="M3.98 74.84 C6.18 74.84 7.96 76.62 7.96 78.82 C7.96 81.01 6.18 82.8 3.98 82.8 C1.79 82.8 0 81.01 0 78.82
								 C0 76.62 1.79 74.84 3.98 74.84 Z" class="st4"/>
				</g>
				<g id="shape42-30" v:mID="42" v:groupContext="shape" transform="translate(50.0155,-5.52406)">
					<title>Sheet.42</title>
					<path d="M23.07 62.61 L23.07 79.83 L19.41 79.83 C19.34 79.64 19.26 79.46 19.18 79.28 C17.97 76.8 15.5 75.26 12.75
								 75.26 C9.72 75.26 7.12 77.16 6.08 79.83 C5.77 80.63 5.6 81.5 5.6 82.42 C5.6 82.54 5.6 82.67 5.61
								 82.8 L0 82.8 L0 47.48 C0 46.74 0.6 46.14 1.34 46.14 L16.54 46.14 C18.49 46.14 20.08 47.72 20.08
								 49.68 L20.08 58.18 C20.08 59.43 20.85 60.5 21.94 60.95 C22.62 61.23 23.07 61.88 23.07 62.61 Z"
							class="st6"/>
				</g>
				<g id="shape43-32" v:mID="43" v:groupContext="shape" transform="translate(69.4308,-5.52547)">
					<title>Sheet.43</title>
					<path d="M5.14 79.83 L5.14 82.8 L0.47 82.8 C0.48 82.67 0.49 82.55 0.49 82.42 C0.49 81.52 0.32 80.65 0 79.83 L5.14
								 79.83 Z" class="st7"/>
				</g>
				<g id="shape44-34" v:mID="44" v:groupContext="shape" transform="translate(56.8543,-5.68434E-14)">
					<title>Sheet.44</title>
					<path d="M0.01 77.28 C0 77.15 0 77.02 0 76.89 C0 73.63 2.65 70.98 5.91 70.98 C8.24 70.98 10.26 72.34 11.22 74.3
								 C11.6 75.08 11.82 75.96 11.82 76.89 C11.82 77.02 11.81 77.15 11.81 77.27 C11.61 80.36 9.04 82.8
								 5.91 82.8 C2.77 82.8 0.21 80.36 0.01 77.28 ZM8.33 76.89 C8.33 75.55 7.24 74.47 5.91 74.47 C4.57
								 74.47 3.48 75.55 3.48 76.89 C3.48 78.23 4.57 79.31 5.91 79.31 C7.24 79.31 8.33 78.23 8.33 76.89
								 Z" class="st5"/>
				</g>
				<g id="shape45-36" v:mID="45" v:groupContext="shape" transform="translate(50.0155,-8.49975)">
					<title>Sheet.45</title>
					<path d="M2.38 49.11 L2.38 82.8 L0 82.8 L0 50.46 C0 49.71 0.6 49.11 1.34 49.11 L2.38 49.11 L2.38 49.11 Z"
							class="st3"/>
				</g>
				<g id="shape46-38" v:mID="46" v:groupContext="shape" transform="translate(68.3685,-12.1184)">
					<title>Sheet.46</title>
					<path d="M3.12 82.8 C1.4 82.8 0 81.4 0 79.68 C0 77.96 1.4 76.56 3.12 76.56 L3.12 82.8 Z" class="st8"/>
				</g>
				<g id="group47-40" transform="translate(54.1305,-28.5096)" v:mID="47" v:groupContext="group">
					<title>Sheet.47</title>
					<g id="shape48-41" v:mID="48" v:groupContext="shape">
						<title>Sheet.48</title>
						<path d="M9.03 72.66 L0.97 72.66 C0.43 72.66 0 73.09 0 73.63 L0 81.83 C0 82.37 0.43 82.8 0.97 82.8 L9.03
									 82.8 L9.03 72.66 Z" class="st8"/>
					</g>
					<g id="shape49-43" v:mID="49" v:groupContext="shape" transform="translate(11.2089,-0.000176066)">
						<title>Sheet.49</title>
						<path d="M1.61 72.66 L0 72.66 L0 82.8 L1.61 82.8 C2.14 82.8 2.58 82.37 2.58 81.83 L2.58 73.63 C2.58 73.09
									 2.14 72.66 1.61 72.66 Z" class="st8"/>
					</g>
				</g>
				<g id="shape50-45" v:mID="50" v:groupContext="shape" transform="translate(0.372555,-5.52494)">
					<title>Sheet.50</title>
					<path d="M55.72 79.83 L49.64 79.83 L49.64 75.5 L0 75.5 L0 79.82 L0 80 L0 82.8 L6.42 82.8 C6.41 82.67 6.41 82.54
								 6.41 82.42 C6.41 81.58 6.55 80.77 6.83 80 L20.29 80 C20.56 80.76 20.71 81.57 20.71 82.42 C20.71
								 82.55 20.71 82.67 20.7 82.8 L55.25 82.8 C55.24 82.67 55.24 82.54 55.24 82.42 C55.24 81.5 55.41 80.63
								 55.72 79.83 Z" class="st7"/>
				</g>
			</g>
			<g id="shape51-47" v:mID="51" v:groupContext="shape" transform="translate(1.19904E-14,-62.7559)">
				<title>Sheet.51</title>
				<desc>Sky</desc>
				<v:textBlock v:margins="rect(4,4,4,4)"/>
				<v:textRect cx="23.1429" cy="73.8007" width="46.29" height="18"/>
				<rect x="0" y="64.8007" width="46.2857" height="18" class="st9"/>
				<text x="8.15" y="78.6" class="st10" v:langID="1033"><v:paragraph v:horizAlign="1"/><v:tabList/>Sky</text>			</g>
			<g id="shape52-50" v:mID="52" v:groupContext="shape" transform="translate(37.2857,-53.7559)">
				<title>Sheet.52</title>
				<desc>Defender</desc>
				<v:textBlock v:margins="rect(4,4,4,4)"/>
				<v:textRect cx="46.125" cy="73.8007" width="92.25" height="18"/>
				<rect x="0" y="64.8007" width="92.25" height="18" class="st9"/>
				<text x="4.8" y="81" class="st11" v:langID="1033"><v:paragraph v:horizAlign="1"/><v:tabList/>D<tspan class="st12">efender</tspan></text>			</g>
			<g id="shape53-54" v:mID="53" v:groupContext="shape" transform="translate(77.1429,-1.42109E-14)">
				<title>Sheet.53</title>
				<desc>Since 2017</desc>
				<v:textBlock v:margins="rect(4,4,4,4)"/>
				<v:textRect cx="23.1429" cy="67.1728" width="46.29" height="31.2559"/>
				<rect x="0" y="51.5448" width="46.2857" height="31.2559" class="st9"/>
				<text x="5.81" y="63.27" class="st13" v:langID="1033"><v:paragraph v:horizAlign="1"/><v:tabList/>Since <tspan
							x="7.61" dy="1.2em" class="st14">2017</tspan></text>			</g>
		</g>
	</g>
</svg>
