<?xml version="1.0" encoding="UTF-8" standalone="no"?>
<!DOCTYPE svg PUBLIC "-//W3C//DTD SVG 1.1//EN" "http://www.w3.org/Graphics/SVG/1.1/DTD/svg11.dtd">
<!-- Generated by Microsoft Visio, SVG Export UMKC_SCE.svg Page-1 -->
<svg xmlns="http://www.w3.org/2000/svg" xmlns:xlink="http://www.w3.org/1999/xlink" xmlns:ev="http://www.w3.org/2001/xml-events"
		xmlns:v="http://schemas.microsoft.com/visio/2003/SVGExtensions/" width="3.43719in" height="1.12795in"
		viewBox="0 0 247.478 81.2127" xml:space="preserve" color-interpolation-filters="sRGB" class="st6">
	<v:documentProperties v:langID="1033" v:viewMarkup="false"/>

	<style type="text/css">
	<![CDATA[
		.st1 {fill:#0087cb;stroke:none;stroke-linecap:butt;stroke-width:0.0719756}
		.st2 {fill:#ffdd21;stroke:none;stroke-linecap:butt;stroke-width:0.0719756}
		.st3 {fill:none;stroke:none;stroke-linecap:round;stroke-linejoin:round;stroke-width:0.749999}
		.st4 {fill:#0087cb;font-family:Arial;font-size:0.916672em}
		.st5 {fill:#0087cb;font-family:Arial;font-size:0.916672em;font-weight:bold}
		.st6 {fill:none;fill-rule:evenodd;font-size:12px;overflow:visible;stroke-linecap:square;stroke-miterlimit:3}
	]]>
	</style>

	<g v:mID="0" v:index="1" v:groupContext="foregroundPage">
		<title>Page-1</title>
		<v:pageProperties v:drawingScale="1" v:pageScale="1" v:drawingUnits="19" v:shadowOffsetX="8.99999"
				v:shadowOffsetY="-8.99999"/>
		<g id="group9-1" transform="translate(0.375,-0.375)" v:mID="9" v:groupContext="group">
			<title>Sheet.9</title>
			<g id="group2-2" transform="translate(87.6702,-49.2802)" v:mID="2" v:groupContext="group">
				<title>Layer_x0020_1</title>
				<g id="shape3-3" v:mID="3" v:groupContext="shape">
					<title>Sheet.3</title>
					<path d="M19.23 62.69 C19.52 62.69 19.67 62.65 19.67 62.45 C19.67 62.26 19.47 62.21 19.14 62.21 C18.18 62.21
								 16.65 62.31 16.32 62.31 C16.27 62.31 14.74 62.21 13.49 62.21 C13.16 62.21 12.97 62.26 12.97 62.45
								 C12.97 62.65 13.11 62.69 13.4 62.69 C13.68 62.69 14.07 62.69 14.31 62.79 C15.12 62.98 15.31 63.36
								 15.36 64.18 C15.41 64.94 15.41 65.66 15.41 69.39 L15.41 72.45 C15.41 74.99 15.31 77.19 13.97 78.58
								 C12.97 79.58 11.67 79.92 10.57 79.92 C9.71 79.92 8.61 79.82 7.51 78.91 C6.32 77.91 5.6 76.43 5.6
								 72.84 L5.6 69.39 C5.6 65.66 5.6 64.94 5.65 64.18 C5.69 63.32 5.89 62.88 6.56 62.79 C6.84 62.74 6.99
								 62.69 7.27 62.69 C7.51 62.69 7.66 62.65 7.66 62.45 C7.66 62.26 7.46 62.21 7.13 62.21 C6.22 62.21
								 4.69 62.31 4.11 62.31 C3.4 62.31 1.82 62.21 0.53 62.21 C0.14 62.21 0 62.26 0 62.45 C0 62.65 0.14
								 62.69 0.43 62.69 C0.77 62.69 1.2 62.69 1.39 62.79 C2.2 62.98 2.39 63.36 2.44 64.18 C2.49 64.94 2.49
								 65.66 2.49 69.39 L2.49 72.98 C2.49 76.57 3.44 78.39 4.69 79.49 C6.51 81.11 8.85 81.21 10.14 81.21
								 C11.72 81.21 13.49 80.92 15.26 79.44 C17.32 77.67 17.61 74.75 17.61 72.02 L17.61 69.39 C17.61 65.66
								 17.61 64.94 17.66 64.18 C17.7 63.32 17.89 62.88 18.56 62.79 C18.85 62.74 19 62.69 19.28 62.69 L19.23
								 62.69 Z" class="st1"/>
				</g>
				<g id="shape4-5" v:mID="4" v:groupContext="shape" transform="translate(54.3064,-1.27898E-13)">
					<title>Sheet.4</title>
					<path d="M16.94 76.28 C16.75 76.28 16.7 76.38 16.6 76.76 C16.51 77.19 16.17 77.91 15.74 78.39 C14.74 79.54 13.45
								 79.77 11.24 79.77 C7.94 79.77 3.49 76.86 3.49 71.02 C3.49 68.63 3.97 66.28 5.74 64.66 C6.84 63.65
								 8.23 63.12 10.38 63.12 C12.63 63.12 14.55 63.79 15.36 64.66 C15.98 65.28 16.32 66.14 16.32 66.9
								 C16.32 67.24 16.36 67.43 16.56 67.43 C16.79 67.43 16.84 67.24 16.84 66.86 C16.89 66.38 16.89 64.99
								 16.94 64.18 C16.99 63.32 17.08 63.03 17.08 62.84 C17.08 62.69 16.99 62.55 16.7 62.55 C15.98 62.45
								 15.17 62.26 14.26 62.12 C13.11 61.98 12.2 61.88 10.67 61.88 C6.99 61.88 4.64 62.88 2.87 64.51 C0.53
								 66.66 0 69.58 0 71.26 C0 73.65 0.62 76.43 3.06 78.53 C5.31 80.49 8.13 81.21 11.48 81.21 C13.06 81.21
								 14.93 81.02 15.93 80.64 C16.36 80.44 16.46 80.35 16.56 79.92 C16.79 79.1 17.08 77.19 17.08 76.71
								 L17.08 76.57 C17.08 76.43 17.03 76.28 16.84 76.28 L16.94 76.28 Z" class="st1"/>
				</g>
				<g id="shape5-7" v:mID="5" v:groupContext="shape" transform="translate(17.0336,-0.526318)">
					<title>Sheet.5</title>
					<path d="M40.77 80.92 C40.48 80.92 40 80.88 39.23 80.54 C37.89 80.01 36.79 78.91 35.69 77.86 C34.74 76.95 29.9
								 71.74 29.04 70.59 C29.86 69.68 33.59 65.99 34.35 65.28 C35.41 64.22 36.27 63.75 37.03 63.41 C37.51
								 63.22 38.13 63.12 38.47 63.12 C38.71 63.12 38.85 63.08 38.85 62.88 C38.85 62.69 38.66 62.65 38.42
								 62.65 C37.66 62.65 36.32 62.74 35.55 62.74 C34.88 62.74 33.54 62.65 33.01 62.65 C32.73 62.65 32.63
								 62.69 32.63 62.88 C32.63 63.03 32.73 63.08 32.97 63.12 C33.21 63.17 33.3 63.36 33.3 63.6 C33.3 64.03
								 32.78 64.66 32.06 65.47 C31.34 66.33 27.75 69.97 26.94 70.88 L26.79 70.88 L26.79 68.82 C26.79 68.34
								 26.79 67.91 26.79 67.53 C26.79 66.71 26.79 66.14 26.79 65.71 C26.79 65.37 26.6 64.7 25.84 64.03
								 C24.21 62.6 18.85 61.07 14.35 58.44 C12.2 57.14 11.77 55.42 11.77 55.42 C11.2 58.24 13.01 60.3 16.41
								 61.74 C16.75 61.88 23.01 64.66 23.21 64.75 C23.35 64.85 24.02 65.13 24.02 65.71 C24.02 66.09 23.92
								 74.66 23.88 78.91 C23.88 79.06 23.88 79.2 23.88 79.34 C23.88 79.63 23.88 79.92 23.88 80.16 C23.88
								 80.21 23.88 80.3 23.88 80.35 C23.88 80.59 23.88 80.78 23.88 80.92 C23.68 80.92 23.49 80.92 23.11
								 80.88 C22.68 80.83 22.44 80.64 22.25 80.35 L22.06 78.96 L20.91 69.73 L20.29 64.8 L18.42 63.99 L12.34
								 76.71 L5.65 62.84 C5.31 62.21 5.17 62.07 4.98 62.07 C4.78 62.07 4.64 62.31 4.55 62.69 L2.11 78.72
								 C1.96 79.54 1.77 80.54 1.1 80.68 C0.72 80.73 0.57 80.73 0.38 80.73 C0.14 80.73 0 80.78 0 80.92 C0
								 81.16 0.19 81.21 0.43 81.21 C1.2 81.21 2.39 81.11 2.87 81.11 C3.3 81.11 4.4 81.21 5.45 81.21 C5.84
								 81.21 6.03 81.16 6.03 80.92 C6.03 80.78 5.84 80.73 5.65 80.73 C5.41 80.73 5.07 80.73 4.59 80.59
								 C4.16 80.49 3.88 80.25 3.88 79.82 C3.88 79.44 3.92 79.1 3.97 78.67 L5.26 68.87 L5.36 68.87 C6.22
								 70.73 7.7 73.79 7.89 74.32 C8.18 74.99 10.14 78.77 10.72 79.92 C11.1 80.64 11.34 81.16 11.58 81.16
								 C11.82 81.16 11.91 80.92 12.49 79.77 L17.85 68.58 L17.94 68.58 L19.38 79.1 L19.43 79.3 C19.43 79.44
								 19.47 79.77 19.57 80.21 C19.52 80.54 19.14 80.68 18.66 80.78 C18.09 80.88 17.66 80.88 17.37 80.88
								 C17.13 80.88 16.89 80.92 16.89 81.02 C16.89 81.21 17.18 81.21 17.61 81.21 C18.9 81.21 20.29 81.16
								 20.81 81.16 C21.39 81.16 22.78 81.21 23.73 81.21 C25.12 81.21 27.27 81.21 28.09 81.21 C28.33 81.21
								 28.47 81.16 28.47 81.02 C28.47 80.92 28.37 80.88 28.18 80.88 C27.89 80.88 27.46 80.83 27.18 80.78
								 C26.7 80.68 26.6 80.3 26.6 79.77 C26.6 79.49 26.6 79.15 26.6 78.77 L26.7 71.78 L26.84 71.78 L27.13
								 72.17 C27.66 72.88 32.49 78.58 33.59 79.54 C34.64 80.49 35.31 81.02 36.65 81.11 C37.18 81.16 37.61
								 81.16 38.33 81.16 L40.48 81.16 C40.96 81.16 41.05 81.07 41.05 80.92 C41.05 80.78 40.91 80.73 40.72
								 80.73 L40.77 80.92 Z" class="st1"/>
				</g>
				<g id="shape6-9" v:mID="6" v:groupContext="shape" transform="translate(28.0384,-17.6556)">
					<title>Sheet.6</title>
					<path d="M1.1 72.36 C1.1 72.36 2.73 74.61 12.87 78.53 C15.36 79.49 15.5 81.02 15.74 81.21 C15.74 81.21 16.32
								 77.91 14.35 76.43 C12.39 74.94 0 71.26 0.77 67.38 C0.1 69.3 0.1 71.26 1.15 72.36 L1.1 72.36 Z"
							class="st2"/>
				</g>
			</g>
			<g id="shape7-11" v:mID="7" v:groupContext="shape" transform="translate(33.8297,-24.64)">
				<title>Sheet.7</title>
				<desc>University of Missouri-Kansas City</desc>
				<v:userDefs/>
				<v:textBlock v:margins="rect(4,4,4,4)"/>
				<v:textRect cx="89.5341" cy="71.2127" width="179.07" height="20"/>
				<rect x="0" y="61.2127" width="179.069" height="20" class="st3"/>
				<text x="6.1" y="74.51" class="st4" v:langID="1033"><v:paragraph v:horizAlign="1"/><v:tabList/>University of Missouri-Kansas City</text>			</g>
			<g id="shape8-14" v:mID="8" v:groupContext="shape">
				<title>Sheet.8</title>
				<desc>Chinese Students and Scholars Association</desc>
				<v:userDefs/>
				<v:textBlock v:margins="rect(4,4,4,4)"/>
				<v:textRect cx="123.364" cy="71.2127" width="246.73" height="20"/>
				<rect x="0" y="61.2127" width="246.728" height="20" class="st3"/>
				<text x="23.15" y="74.51" class="st5" v:langID="1033"><v:paragraph v:horizAlign="1"/><v:tabList/>School of Computing and Engineering</text>			</g>
		</g>
	</g>
</svg>
